HIERARCHY
ROOT Hips
{
    OFFSET 0.000000 0.000000 0.000000
    CHANNELS 6 Xposition Yposition Zposition Zrotation Xrotation Yrotation
    JOINT Spine
    {
        OFFSET -0.000000 6.925600 0.000000
        CHANNELS 3 Zrotation Xrotation Yrotation
        JOINT Spine1
        {
            OFFSET -0.000000 16.343796 0.000000
            CHANNELS 3 Zrotation Xrotation Yrotation
            JOINT Neck
            {
                OFFSET -0.000000 18.032967 0.000000
                CHANNELS 3 Zrotation Xrotation Yrotation
                JOINT Head
                {
                    OFFSET -0.000000 13.091072 1.689171
                    CHANNELS 3 Zrotation Xrotation Yrotation
                    End Site
                    {
                        OFFSET -0.000000 16.891708 0.000000
                    }
                }
            }
            JOINT LeftShoulder
            {
                OFFSET 3.336773 14.146137 -0.012206
                CHANNELS 3 Zrotation Xrotation Yrotation
                JOINT LeftArm
                {
                    OFFSET 11.765518 0.000000 0.000000
                    CHANNELS 3 Zrotation Xrotation Yrotation
                    JOINT LeftForeArm
                    {
                        OFFSET 25.163450 0.000000 0.000000
                        CHANNELS 3 Zrotation Xrotation Yrotation
                        JOINT LeftHand
                        {
                            OFFSET 21.783554 0.000000 0.000000
                            CHANNELS 3 Zrotation Xrotation Yrotation
                            End Site
                            {
                                OFFSET 12.668781 0.000000 0.000000
                            }
                        }
                    }
                }
            }
            JOINT RightShoulder
            {
                OFFSET -3.409204 14.146137 -0.012206
                CHANNELS 3 Zrotation Xrotation Yrotation
                JOINT RightArm
                {
                    OFFSET -11.765518 0.000000 0.000000
                    CHANNELS 3 Zrotation Xrotation Yrotation
                    JOINT RightForeArm
                    {
                        OFFSET -25.163450 0.000000 0.000000
                        CHANNELS 3 Zrotation Xrotation Yrotation
                        JOINT RightHand
                        {
                            OFFSET -21.783554 0.000000 0.000000
                            CHANNELS 3 Zrotation Xrotation Yrotation
                            End Site
                            {
                                OFFSET -12.668781 0.000000 0.000000
                            }
                        }
                    }
                }
            }
        }
    }
    JOINT LeftUpLeg
    {
        OFFSET 8.445854 0.000000 0.000000
        CHANNELS 3 Zrotation Xrotation Yrotation
        JOINT LeftLeg
        {
            OFFSET -0.000000 -40.674755 0.000000
            CHANNELS 3 Zrotation Xrotation Yrotation
            JOINT LeftFoot
            {
                OFFSET -0.000000 -37.111794 0.000000
                CHANNELS 3 Zrotation Xrotation Yrotation
                JOINT LeftToeBase
                {
                    OFFSET -0.000000 -5.489805 12.668781
                    CHANNELS 3 Zrotation Xrotation Yrotation
                    End Site
                    {
                        OFFSET -0.000000 0.000000 3.378341
                    }
                }
            }
        }
    }
    JOINT RightUpLeg
    {
        OFFSET -8.445854 0.000000 0.000000
        CHANNELS 3 Zrotation Xrotation Yrotation
        JOINT RightLeg
        {
            OFFSET -0.000000 -40.674755 0.000000
            CHANNELS 3 Zrotation Xrotation Yrotation
            JOINT RightFoot
            {
                OFFSET -0.000000 -37.111794 0.000000
                CHANNELS 3 Zrotation Xrotation Yrotation
                JOINT RightToeBase
                {
                    OFFSET -0.000000 -5.489805 12.668781
                    CHANNELS 3 Zrotation Xrotation Yrotation
                    End Site
                    {
                        OFFSET -0.000000 0.000000 3.378341
                    }
                }
            }
        }
    }
}
MOTION
Frames:    4
Frame Time:    0.008333
14.132860    83.489677    2.902432    0.963138    -5.101340    -2.511613    2.156064    -3.428249    -1.964183    -3.731809    16.110504    -0.149490    -5.408890    -0.178247    -6.326431    8.847482    -3.094965    -8.149035    -0.500147    8.771773    9.798394    -40.127571    45.696167    -40.550495    7.236653    1.626037    -26.038589    -6.183527    3.760440    -8.523607    -1.919183    8.886411    -2.764212    40.643475    46.145287    39.809673    -2.473657    0.385239    26.333378    -12.355664    -0.098993    9.796472    2.213684    -0.858806    -0.505135    -0.281214    15.742120    2.099702    -3.759542    -8.417915    15.777200    -4.724775    -5.246902    2.197444    3.641831    6.766605    1.538903    -7.771485    0.907773    -14.479737    1.695150    -3.606241    -1.660382    -2.179445    2.633638    1.873260    
14.120876    83.488640    2.905191    0.965516    -5.089112    -2.504003    2.120612    -3.445585    -1.955436    -3.658276    16.134552    -0.155951    -5.410278    -0.203916    -6.279408    8.768052    -3.108554    -8.090406    -0.515730    8.771059    9.804718    -40.216797    45.660378    -40.516644    7.214652    1.596599    -25.983208    -6.211582    3.724807    -8.531662    -1.890069    9.079113    -2.977150    40.254906    46.050674    40.253490    -2.361573    0.384876    26.209763    -12.348653    -0.122779    9.752007    2.229378    -0.897425    -0.517452    -0.273767    15.722240    2.086946    -3.834778    -7.879366    15.706200    -5.135110    -5.808617    2.127776    3.650613    6.772675    1.535715    -7.759649    0.877180    -14.487438    1.759239    -3.454037    -1.730005    -2.077966    2.465168    1.871080    
14.110355    83.488441    2.907373    0.969187    -5.077137    -2.499470    2.128784    -3.467305    -1.953286    -3.651265    16.151625    -0.155842    -5.412692    -0.165462    -6.263745    8.729326    -3.208571    -8.064929    -0.552538    8.785511    9.793437    -40.318596    45.564682    -40.432449    7.198149    1.636910    -25.876890    -6.176273    3.757993    -8.650707    -1.885039    9.090030    -2.957561    40.297039    46.010475    40.184116    -2.342709    0.394708    26.101000    -12.320737    -0.113055    9.712479    2.224256    -0.869799    -0.534078    -0.283135    15.718517    2.102367    -3.773040    -8.419784    15.789166    -4.718820    -5.241950    2.189831    3.647757    6.773323    1.542723    -7.761563    0.854769    -14.476283    1.674072    -3.565585    -1.677286    -2.159782    2.583777    1.902337    
14.101243    83.488815    2.910050    0.976215    -5.063730    -2.495878    2.146161    -3.462773    -1.949695    -3.668977    16.135675    -0.152814    -5.380682    -0.178484    -6.230069    8.648988    -3.231442    -8.015566    -0.555430    8.798708    9.808130    -40.407841    45.511032    -40.370342    7.170471    1.591163    -25.851881    -6.238369    3.708477    -8.641154    -1.881457    9.087693    -2.966094    40.343498    46.006729    40.115425    -2.328818    0.378145    26.034197    -12.235426    -0.117698    9.627105    2.230072    -0.909882    -0.543593    -0.269723    15.699089    2.096682    -3.843382    -7.854956    15.715816    -5.144951    -5.829477    2.105582    3.646429    6.772867    1.551542    -7.757699    0.833085    -14.517261    1.665116    -3.566123    -1.647698    -2.173343    2.615643    1.886595    
